<?xml version="1.0" standalone="no"?>
<!DOCTYPE svg PUBLIC "-//W3C//DTD SVG 20010904//EN"
 "http://www.w3.org/TR/2001/REC-SVG-20010904/DTD/svg10.dtd">
<svg version="1.0" xmlns="http://www.w3.org/2000/svg"
 width="300.000000pt" height="300.000000pt" viewBox="0 0 300.000000 300.000000"
 preserveAspectRatio="xMidYMid meet">
<metadata>
Created by potrace 1.10, written by Peter Selinger 2001-2011
</metadata>
<g transform="translate(0.000000,300.000000) scale(0.100000,-0.100000)"
fill="#000000" stroke="none">
<path d="M710 2350 l0 -90 -91 0 -91 0 6 -31 c3 -17 6 -56 6 -85 l0 -54 85 0
85 0 0 85 0 85 265 0 265 0 0 -85 0 -85 85 0 85 0 0 -90 0 -90 90 0 90 0 0 90
0 90 88 0 87 0 -3 85 -3 85 265 0 266 0 0 -85 0 -85 90 0 90 0 0 -265 0 -265
85 0 85 0 0 265 0 265 -85 0 -85 0 0 85 0 85 -90 0 -90 0 0 90 0 90 -265 0
-265 0 0 -90 0 -90 -85 0 -85 0 0 -85 0 -85 -90 0 -90 0 0 85 0 85 -85 0 -85
0 0 90 0 90 -265 0 -265 0 0 -90z m484 34 c9 -25 7 -72 -4 -79 -13 -8 -418 -8
-431 0 -5 4 -9 26 -9 51 l0 44 219 0 c190 0 220 -2 225 -16z m1051 -34 l0 -45
-220 0 -220 0 -3 24 c-2 12 -1 34 2 47 l6 24 218 -2 217 -3 0 -45z m-1575
-175 c0 -45 -10 -55 -56 -55 -51 0 -56 96 -6 102 52 6 62 -1 62 -47z m696 35
c6 -6 8 -27 5 -48 -6 -33 -9 -37 -41 -40 -24 -3 -38 2 -47 14 -14 19 -18 66
-6 77 10 11 78 8 89 -3z m362 -37 c3 -38 0 -43 -21 -48 -50 -13 -72 -3 -75 33
-5 54 2 64 50 60 43 -3 43 -3 46 -45z m693 40 c0 -5 2 -19 4 -33 5 -43 -12
-61 -53 -58 -37 3 -37 4 -40 51 l-3 47 45 0 c26 0 46 -3 47 -7z m-887 -169
c11 -4 16 -19 16 -50 l0 -44 -50 0 -50 0 0 44 c0 26 5 46 13 49 18 8 53 8 71
1z m1061 -219 l0 -220 -39 -3 c-24 -2 -42 2 -47 9 -13 22 -11 409 2 426 8 9
26 13 48 11 l36 -3 0 -220z"/>
<path d="M1983 2093 c26 -2 67 -2 90 0 23 2 2 3 -48 3 -49 0 -68 -1 -42 -3z"/>
<path d="M360 1825 l0 -265 85 0 85 0 0 265 0 265 -85 0 -85 0 0 -265z m135
203 c3 -13 4 -113 3 -223 l-3 -200 -45 0 -45 0 -3 214 c-3 234 -3 231 55 231
26 0 34 -5 38 -22z"/>
<path d="M1928 2013 c5 -102 10 -108 11 -15 0 45 -3 82 -7 82 -4 0 -6 -30 -4
-67z"/>
<path d="M2120 1997 l0 -87 74 0 c41 0 78 5 81 10 4 6 -21 10 -68 10 l-74 0
-2 72 c-2 102 -11 98 -11 -5z"/>
<path d="M1951 1906 c2 -2 29 -5 59 -7 92 -4 89 -2 93 -88 l3 -76 2 88 2 87
-82 0 c-45 0 -79 -2 -77 -4z"/>
<path d="M2293 1825 c0 -44 2 -61 4 -37 2 23 2 59 0 80 -2 20 -4 1 -4 -43z"/>
<path d="M2163 1723 c26 -2 67 -2 90 0 23 2 2 3 -48 3 -49 0 -68 -1 -42 -3z"/>
<path d="M537 1473 c-4 -48 -5 -88 -4 -89 1 -1 41 0 90 3 l87 6 0 83 0 84 -84
0 -83 0 -6 -87z m131 0 c-3 -46 -4 -47 -40 -51 -41 -4 -61 19 -54 60 3 13 5
26 5 31 1 4 21 7 47 7 l45 0 -3 -47z"/>
<path d="M2290 1475 l0 -85 59 0 c32 0 73 -3 90 -6 l32 -7 -3 89 -3 89 -87 3
-88 3 0 -86z m137 3 c4 -42 -19 -61 -65 -56 -25 3 -27 7 -30 51 l-3 48 48 -3
c47 -3 48 -3 50 -40z"/>
<path d="M788 1382 l-78 -3 0 -84 0 -85 91 0 90 0 -2 -87 -2 -88 86 -3 87 -3
0 -84 0 -85 90 0 90 0 0 -90 0 -90 85 0 85 0 0 -85 0 -85 90 0 90 0 0 85 0 85
85 0 85 0 0 90 0 90 90 0 90 0 0 85 0 84 87 3 87 3 -3 88 -3 87 91 0 91 0 0
85 0 85 -80 0 c-44 0 -83 0 -87 0 -4 0 -8 -37 -8 -83 l0 -82 -87 -3 -88 -3 0
-89 0 -90 -90 0 -90 0 0 -85 0 -85 -85 0 -85 0 0 -90 0 -90 -90 0 -90 0 0 90
0 90 -85 0 -85 0 0 85 0 85 -90 0 -90 0 0 90 0 90 -85 0 -84 0 -3 87 c-2 48
-7 87 -13 88 -5 0 -45 -1 -87 -3z m57 -82 l0 -45 -47 -3 -48 -3 0 44 c0 24 3
47 7 51 4 4 25 6 48 4 l40 -3 0 -45z m1400 0 l0 -45 -45 0 c-44 0 -45 1 -48
33 -5 45 13 64 57 60 36 -3 36 -4 36 -48z m-1227 -177 c-3 -51 -16 -61 -63
-49 -25 6 -40 45 -30 77 5 15 16 19 51 19 l45 0 -3 -47z m1053 40 c12 -79 2
-96 -53 -91 -32 3 -33 5 -36 51 l-3 47 45 0 c26 0 47 -3 47 -7z m-875 -187 c3
-13 4 -35 2 -47 -3 -21 -8 -24 -48 -24 l-45 0 -3 39 c-4 44 7 56 55 56 26 0
34 -5 39 -24z m699 -26 l0 -45 -47 -3 -48 -3 0 38 c0 49 15 64 60 60 34 -2 35
-3 35 -47z m-522 -162 c6 -45 -8 -68 -41 -68 -47 0 -56 13 -53 73 1 25 4 27
45 27 42 0 44 -2 49 -32z m345 -15 c-3 -48 -3 -48 -40 -51 -32 -3 -40 1 -49
22 -6 13 -9 36 -5 50 6 23 11 26 52 26 l45 0 -3 -47z m-180 -135 c16 -16 15
-73 -2 -87 -13 -11 -55 -9 -76 4 -14 9 -12 82 3 88 23 10 63 7 75 -5z"/>
</g>
</svg>
